<svg xmlns="http://www.w3.org/2000/svg" viewBox="0 0 150.69 25.91"><defs><style>.cls-1{fill:#231f20;}.cls-2{fill:#a7a9ac;}.cls-3{fill:#939598;}.cls-4{fill:#808285;}.cls-5{fill:#6d6e71;}.cls-6{fill:#58595b;}.cls-7{fill:#414042;}</style></defs><g id="Layer_2" data-name="Layer 2"><g id="_레이어_" data-name="&lt;레이어&gt;"><polygon class="cls-1" points="78.52 1.53 76.99 0 75.46 1.53 70.55 6.44 72.07 7.97 76.99 3.06 81.86 7.93 83.39 6.4 78.52 1.53"/><path class="cls-1" d="M60.22,9.92v16h2.16v-16H60.22m-6.52.63H47.53a2.88,2.88,0,0,0-2.88,2.88v6.23a2.89,2.89,0,0,0,2.88,2.89H53.7a2.9,2.9,0,0,0,2.89-2.89V13.43a2.89,2.89,0,0,0-2.89-2.88m.73,9.11a.73.73,0,0,1-.73.73H47.53a.73.73,0,0,1-.72-.73V13.43a.72.72,0,0,1,.72-.72H53.7a.72.72,0,0,1,.73.72Z"/><path class="cls-1" d="M16,9.92v4.13H13.55V9.92H11.39v16h2.16v-9.7H16v9.7h2.16v-16H16M0,13.41v3.64a2.89,2.89,0,0,0,2.88,2.89h8.85V17.78H2.88a.73.73,0,0,1-.72-.73V13.41a.72.72,0,0,1,.72-.72H9.26V10.53H2.88A2.88,2.88,0,0,0,0,13.41Z"/><path class="cls-1" d="M41.41,16.93H38.7V13.37C38.7,10.9,38,10,35.28,10H23.18v2.16h12.1c1,0,1.26.57,1.26,1.26v3.56H20.83v2.16h8.7V25.9H31.7V19.09h9.72Z"/><path class="cls-1" d="M88.13,12.25V10.09H65.74v2.16h10v2.36H70.16v2.16h11c.75,0,.83.62.83,1.2s-.08,1.17-.83,1.17H72c-2,0-2.1,1.47-2.1,3.26v.05c0,1.24-.11,3.46,2.1,3.46H84.18V23.76h-11c-1.07,0-1.07-.78-1.07-1.34h0c0-.65,0-1.12,1.07-1.12H82c2,0,2.07-1,2.15-2.66h0V17.27h0c-.08-1.67-.23-2.66-2.18-2.66h-4V12.25Z"/><path class="cls-1" d="M101.15,13.47v1.82h2.15V12.81c0-1.88-.87-2.76-2.76-2.76H91.42V12.2h8.46c1.1,0,1.27.57,1.27,1.27M108.08,21V15.34h2.69V13.18h-2.69V9.58h-2.16v7.19H97.2V13.45H95v3.32H89.85v2.16h3V23c0,1.89.93,2.63,2.81,2.63h12.54V23.47H96.31c-.7,0-1.27-.15-1.27-1.26V18.93h10.88V21Z"/><path class="cls-2" d="M146.88,0,126,1.75a3.83,3.83,0,0,0-2.78,1.91l-5.92,11.22a2.89,2.89,0,0,0-.29,2.4,1.35,1.35,0,0,0,.9.8l24.94,7.07a5.1,5.1,0,0,0,4.28-.58,4,4,0,0,0,1.73-2.93h0L150.68,2.4A1.76,1.76,0,0,0,150.14,1,4.15,4.15,0,0,0,146.88,0m-4,24.94-24.94-7.07a1.15,1.15,0,0,1-.77-.69,2.69,2.69,0,0,1,.27-2.23l5.93-11.22A3.63,3.63,0,0,1,126,2L146.89.22a4,4,0,0,1,3.11.87,1.57,1.57,0,0,1,.48,1.29l-1.85,19.25A3.76,3.76,0,0,1,147,24.4,4.87,4.87,0,0,1,142.87,25Z"/><path class="cls-3" d="M145.07,2.22l-18.87.94a3.54,3.54,0,0,0-2.59,1.66L118,14.75a2.64,2.64,0,0,0-.33,2.18,1.27,1.27,0,0,0,.81.77l22.24,7.08a4.59,4.59,0,0,0,3.89-.4,3.58,3.58,0,0,0,1.66-2.61l2.23-17.26a1.49,1.49,0,0,0,0-.21A1.64,1.64,0,0,0,148,3.16a3.78,3.78,0,0,0-2.94-.94m-4.32,22.33-22.23-7.09a1,1,0,0,1-.66-.62,2.4,2.4,0,0,1,.32-2L123.83,5a3.22,3.22,0,0,1,2.38-1.53l18.88-.95a3.52,3.52,0,0,1,2.74.86,1.39,1.39,0,0,1,.38,1.15L146,21.74a3.28,3.28,0,0,1-1.54,2.42,4.36,4.36,0,0,1-3.69.39"/><path class="cls-4" d="M143.27,4.41l-16.82.17a3.15,3.15,0,0,0-2.4,1.4l-5.39,8.63a2.39,2.39,0,0,0-.37,2,1.15,1.15,0,0,0,.72.74l19.53,7.1a4.18,4.18,0,0,0,3.52-.23,3.23,3.23,0,0,0,1.58-2.28h0l2.6-15.28a1.49,1.49,0,0,0-.36-1.25,3.39,3.39,0,0,0-2.61-1m-4.63,19.72L119.11,17a.88.88,0,0,1-.54-.56,2.11,2.11,0,0,1,.35-1.71l5.38-8.62a2.83,2.83,0,0,1,2.15-1.26l16.82-.17a3.14,3.14,0,0,1,2.38.85,1.2,1.2,0,0,1,.3,1l-2.6,15.28a2.93,2.93,0,0,1-1.45,2.07A3.84,3.84,0,0,1,138.64,24.13Z"/><path class="cls-5" d="M124.49,7.44l-5.12,7.33a2.16,2.16,0,0,0-.43,1.74,1.09,1.09,0,0,0,.63.71l16.83,7.12a3.71,3.71,0,0,0,3.13,0,2.89,2.89,0,0,0,1.52-2L144,9a1,1,0,0,0,0-.29,1.33,1.33,0,0,0-.31-.85,3,3,0,0,0-2.27-1L126.69,6.3a2.82,2.82,0,0,0-2.2,1.14m12,16.58L119.7,16.9a.74.74,0,0,1-.42-.49,1.79,1.79,0,0,1,.38-1.44l5.12-7.33a2.45,2.45,0,0,1,1.9-1l14.78.61a2.75,2.75,0,0,1,2,.84,1,1,0,0,1,.2.86l-3,13.3A2.52,2.52,0,0,1,139.37,24a3.31,3.31,0,0,1-2.84,0"/><path class="cls-6" d="M124.93,9l-4.85,6a1.89,1.89,0,0,0-.48,1.52,1,1,0,0,0,.52.68l14.13,7.14a3.25,3.25,0,0,0,2.75.15,2.56,2.56,0,0,0,1.46-1.64h0l3.34-11.32a1.2,1.2,0,0,0-.17-1,2.68,2.68,0,0,0-1.95-1L127,8.1a2.5,2.5,0,0,0-2,.87m9.5,15L120.3,16.86a.62.62,0,0,1-.31-.41,1.55,1.55,0,0,1,.4-1.19l4.85-6a2.1,2.1,0,0,1,1.66-.73l12.74,1.39a2.34,2.34,0,0,1,1.66.82.83.83,0,0,1,.12.71l-3.35,11.33a2.14,2.14,0,0,1-1.23,1.38A2.81,2.81,0,0,1,134.43,24Z"/><path class="cls-7" d="M125.36,10.51l-4.58,4.73a1.7,1.7,0,0,0-.54,1.31.87.87,0,0,0,.41.65l11.43,7.15a2.79,2.79,0,0,0,2.36.35,2.22,2.22,0,0,0,1.4-1.31l3.72-9.34a1.08,1.08,0,0,0-.07-.94,2.27,2.27,0,0,0-1.61-1L127.19,9.9a2.17,2.17,0,0,0-1.83.61m7,13.46-11.43-7.15a.41.41,0,0,1-.2-.33,1.23,1.23,0,0,1,.41-.93l4.59-4.74a1.69,1.69,0,0,1,1.41-.47l10.69,2.17a1.9,1.9,0,0,1,1.31.8.63.63,0,0,1,0,.57l-3.72,9.33a1.75,1.75,0,0,1-1.12,1.05A2.33,2.33,0,0,1,132.32,24Z"/><path class="cls-1" d="M125.8,12l-4.32,3.45a1.45,1.45,0,0,0-.61,1.07.77.77,0,0,0,.3.63l8.72,7.17a2.4,2.4,0,0,0,2,.55,1.91,1.91,0,0,0,1.34-1h0l4.09-7.36a.92.92,0,0,0,0-.84,2,2,0,0,0-1.26-1.07l-8.65-3a1.88,1.88,0,0,0-1.64.31m4.41,11.93-8.72-7.16a.32.32,0,0,1-.12-.25,1,1,0,0,1,.42-.68l4.32-3.45a1.42,1.42,0,0,1,1.17-.23l8.65,3a1.54,1.54,0,0,1,1,.76.53.53,0,0,1,0,.43l-4.1,7.36a1.4,1.4,0,0,1-1,.71A1.9,1.9,0,0,1,130.21,23.93Z"/></g></g></svg>