<svg xmlns="http://www.w3.org/2000/svg" viewBox="0 0 196.4 147.15"><defs><style>.cls-1{fill:#a7a9ac;}.cls-2{fill:#939598;}.cls-3{fill:#808285;}.cls-4{fill:#6d6e71;}.cls-5{fill:#58595b;}.cls-6{fill:#414042;}.cls-7{fill:#231f20;}</style></defs><g id="Layer_2" data-name="Layer 2"><g id="_레이어_" data-name="&lt;레이어&gt;"><path class="cls-1" d="M174.31.12,53,10.14c-6,.49-13.11,5.37-16.14,11.09L2.52,86.29c-2.63,5-3.25,10.19-1.64,13.92a7.79,7.79,0,0,0,5.23,4.65l144.64,41c8.9,2.52,17.93,1.29,24.79-3.41a22.83,22.83,0,0,0,10.06-16.94h0L196.35,13.93a10.26,10.26,0,0,0-3.12-8.41c-4-4-11-6-18.92-5.4M151.06,144.76l-144.63-41a6.78,6.78,0,0,1-4.49-4C.48,96.34,1.08,91.5,3.55,86.82l34.35-65c2.86-5.4,9.54-10,15.21-10.48l121.29-10c7.54-.63,14.27,1.27,18,5a9.24,9.24,0,0,1,2.79,7.5l-10.75,111.6a21.76,21.76,0,0,1-9.55,16.09C168.32,146,159.62,147.19,151.06,144.76Z"/><path class="cls-2" d="M163.85,12.86,54.41,18.35c-5.51.28-12.1,4.51-15,9.63L6.6,85.51C4.05,90,3.34,94.71,4.69,98.18a7.35,7.35,0,0,0,4.71,4.46l129,41.09c8,2.55,16.23,1.69,22.6-2.36a20.77,20.77,0,0,0,9.62-15.1L183.49,26.15a8.7,8.7,0,0,0,.08-1.24,9.52,9.52,0,0,0-2.69-6.57c-3.5-3.78-9.87-5.84-17-5.48m-25.06,129.5L9.84,101.26A6,6,0,0,1,6,97.64c-1.2-3-.51-7.32,1.82-11.4L40.66,28.7c2.69-4.73,8.76-8.64,13.82-8.9l109.44-5.48c6.74-.34,12.68,1.53,15.9,5A8,8,0,0,1,182.05,26L169.13,126.09a19.34,19.34,0,0,1-9,14c-6,3.82-13.79,4.63-21.38,2.22m31.78-16.09h0Z"/><path class="cls-3" d="M153.4,25.58l-97.58,1c-5,.05-11.08,3.62-13.89,8.13l-31.25,50c-2.46,3.93-3.27,8.19-2.17,11.39a6.72,6.72,0,0,0,4.16,4.27L126,141.56c7.09,2.57,14.51,2.1,20.39-1.33A18.75,18.75,0,0,0,155.55,127h0l15.08-88.63a8.65,8.65,0,0,0-2.09-7.23c-3-3.55-8.68-5.62-15.14-5.56M126.55,139.92,13.27,98.73a5,5,0,0,1-3.12-3.2c-.93-2.71-.18-6.42,2-9.91l31.24-50c2.53-4.05,8-7.26,12.43-7.31l97.58-1c5.86,0,11.15,1.84,13.8,4.95a7,7,0,0,1,1.7,5.82L153.84,126.7a17.07,17.07,0,0,1-8.38,12C140,141.89,133.15,142.32,126.55,139.92Z"/><path class="cls-4" d="M44.47,43.12,14.78,85.64c-2.39,3.41-3.3,7.19-2.46,10.12a6.15,6.15,0,0,0,3.61,4.11l97.59,41.27a21.38,21.38,0,0,0,18.17-.24,16.64,16.64,0,0,0,8.82-11.38l17.24-77.13a6.92,6.92,0,0,0,.2-1.73,8,8,0,0,0-1.75-4.93c-2.53-3.3-7.48-5.42-13.22-5.66L57.25,36.51c-4.44-.18-10.06,2.72-12.78,6.61m69.85,96.16L16.71,98a4.18,4.18,0,0,1-2.44-2.81c-.67-2.33.14-5.47,2.17-8.39L46.13,44.29c2.33-3.33,7.28-5.91,11-5.75l85.72,3.57c5.07.2,9.56,2.06,11.71,4.86a5.8,5.8,0,0,1,1.18,5l-17.25,77.14a14.64,14.64,0,0,1-7.77,10,19.36,19.36,0,0,1-16.44.19"/><path class="cls-5" d="M47,52,18.89,87c-2.3,2.87-3.34,6.18-2.77,8.84a5.63,5.63,0,0,0,3,4l81.94,41.37a18.81,18.81,0,0,0,16,.86,14.76,14.76,0,0,0,8.44-9.5h0l19.41-65.63a7.08,7.08,0,0,0-1-6.09c-2-3.08-6.26-5.24-11.3-5.79L58.72,47A14.38,14.38,0,0,0,47,52m55.09,87.09L20.19,97.75a3.31,3.31,0,0,1-1.8-2.37c-.42-2,.44-4.56,2.3-6.88l28.16-35c2.15-2.68,6.46-4.57,9.61-4.22l73.87,8.08c4.29.46,8,2.29,9.63,4.76a4.8,4.8,0,0,1,.69,4.14l-19.41,65.65a12.45,12.45,0,0,1-7.14,8A16.47,16.47,0,0,1,102.12,139.13Z"/><path class="cls-6" d="M49.54,60.92,23,88.41c-2.26,2.32-3.42,5.14-3.12,7.54a5.14,5.14,0,0,0,2.39,3.81l66.27,41.46a16.31,16.31,0,0,0,13.71,2,12.88,12.88,0,0,0,8.11-7.58l21.57-54.16a6.34,6.34,0,0,0-.39-5.49c-1.54-2.85-5-5.07-9.35-6l-62-12.6a12.55,12.55,0,0,0-10.59,3.48M89.86,139,23.61,97.55a2.56,2.56,0,0,1-1.2-1.92c-.19-1.59.73-3.67,2.41-5.41l26.6-27.48A10,10,0,0,1,59.61,60l62,12.6c3.52.72,6.41,2.49,7.57,4.64a3.93,3.93,0,0,1,.53,1.92,3.57,3.57,0,0,1-.26,1.36l-21.58,54.16a10.32,10.32,0,0,1-6.49,6.07A13.78,13.78,0,0,1,89.86,139Z"/><path class="cls-7" d="M52.07,69.6l-25,20a8.53,8.53,0,0,0-3.53,6.2,4.57,4.57,0,0,0,1.72,3.69L75.79,141a14,14,0,0,0,11.47,3.21,11.1,11.1,0,0,0,7.78-5.6h0L118.78,96a5.61,5.61,0,0,0,.3-4.9c-1-2.64-3.76-4.93-7.35-6.16L61.58,67.79a10.84,10.84,0,0,0-9.51,1.81m25.56,69.2L27,97.24a1.75,1.75,0,0,1-.65-1.45,5.78,5.78,0,0,1,2.44-4l25-20a8.06,8.06,0,0,1,6.77-1.34l50.15,17.14c2.74.94,4.88,2.64,5.58,4.46a2.74,2.74,0,0,1-.12,2.44L92.52,137.24a8.27,8.27,0,0,1-5.8,4.16A11.13,11.13,0,0,1,77.63,138.8Z"/></g></g></svg>