<svg xmlns="http://www.w3.org/2000/svg" viewBox="0 0 308.4 20.51"><defs><style>.cls-1{fill:#231f20;}</style></defs><g id="Layer_2" data-name="Layer 2"><g id="_레이어_" data-name="&lt;레이어&gt;"><path class="cls-1" d="M13.68,4.27A8,8,0,0,0,9.91,1.14,12.24,12.24,0,0,0,8,.57,11.45,11.45,0,0,0,5.72.34H0V20.2H5l1.9-.07a8.66,8.66,0,0,0,1.83-.29,8.87,8.87,0,0,0,2.43-1.11,8.14,8.14,0,0,0,2-1.91A9,9,0,0,0,14.62,14a12.41,12.41,0,0,0,.53-3.78A10.67,10.67,0,0,0,13.68,4.27ZM5,17.21H3.37V3.33H4.8l1.51.08,1.41.16a4.86,4.86,0,0,1,1.5.58,4.36,4.36,0,0,1,1.3,1.21,6.39,6.39,0,0,1,.93,2,10.92,10.92,0,0,1,.39,2.89,9.83,9.83,0,0,1-.37,2.84,6.82,6.82,0,0,1-1,2,5.18,5.18,0,0,1-1.3,1.27A5,5,0,0,1,7.84,17l-1.33.21Z"/><path class="cls-1" d="M31.2.29H27.75l-7.1,19.86h3.42s2-5.47,2.12-5.71h6.49l2,5.71h3.69Zm-4,11.16c.15-.45,2.12-6.31,2.35-7,.22.71,2,6.57,2.15,7Z"/><path class="cls-1" d="M48.55,17.21V11.32h7.83v-3H48.55v-5h8.16v-3H45.19V20.2H57v-3Z"/><path class="cls-1" d="M79.79,6.67V6.48a6.77,6.77,0,0,0-.56-2.83,5.84,5.84,0,0,0-1.51-2A6.35,6.35,0,0,0,75.51.4,8.42,8.42,0,0,0,72.88,0a9.18,9.18,0,0,0-4,.83A8.59,8.59,0,0,0,66,3,9.09,9.09,0,0,0,64.3,6.19a12.32,12.32,0,0,0-.55,3.7,14.22,14.22,0,0,0,.53,3.83A10.53,10.53,0,0,0,66,17.13,8.46,8.46,0,0,0,73,20.48l2.17-.12L76.86,20l1.23-.41.88-.38.61-.09.16,0V9.29h-8v3h4.66v4.86l-1.27.32-1.57.12a5.93,5.93,0,0,1-3.29-.87,6.23,6.23,0,0,1-1.93-2,7.71,7.71,0,0,1-.93-2.48A12.7,12.7,0,0,1,67.14,10a9.71,9.71,0,0,1,.44-3A6.7,6.7,0,0,1,68.8,4.73a5.09,5.09,0,0,1,1.81-1.39,5.28,5.28,0,0,1,2.24-.49,6,6,0,0,1,1.32.21,3.22,3.22,0,0,1,1.13.59,2.73,2.73,0,0,1,.76,1.08,4.72,4.72,0,0,1,.28,1.75v.19Z"/><path class="cls-1" d="M99.6.34V12.61a8.62,8.62,0,0,1-.2,1.83A4.69,4.69,0,0,1,98.74,16a3.5,3.5,0,0,1-1.22,1.1,4,4,0,0,1-1.9.41,3.89,3.89,0,0,1-1.93-.42A3.26,3.26,0,0,1,92.51,16a4.31,4.31,0,0,1-.6-1.57,10.81,10.81,0,0,1-.16-1.82V.34H88.33V12.67a12.74,12.74,0,0,0,.29,2.62,6.82,6.82,0,0,0,1.1,2.55,6,6,0,0,0,2.22,1.91,8,8,0,0,0,3.68.75,7.71,7.71,0,0,0,3.63-.77,6.56,6.56,0,0,0,2.27-1.94,7.16,7.16,0,0,0,1.17-2.54,11.06,11.06,0,0,0,.33-2.58V.34Z"/><path class="cls-1" d="M126.34,19.84h-1.85l-2.08-6.06h-7.94l-2.11,6.06h-1.63L117.4.77h2.19ZM122,12.45l-3.33-9.89h-.36l-3.33,9.89Z"/><path class="cls-1" d="M146.93,19.86h-1.85l-.68-3.7a7.49,7.49,0,0,0-.61-1.82,8.28,8.28,0,0,0-.85-1.44,6.47,6.47,0,0,0-1-1,3.8,3.8,0,0,0-.91-.56,3.41,3.41,0,0,1-.75.05,6.29,6.29,0,0,1-.72,0h-1.76v-1.3h1.74a10.1,10.1,0,0,0,1.89-.19,5.57,5.57,0,0,0,1.71-.65A3.54,3.54,0,0,0,144.39,8a3.87,3.87,0,0,0,.48-2,3.21,3.21,0,0,0-.48-1.81A3.45,3.45,0,0,0,143.16,3a5.53,5.53,0,0,0-1.71-.62,9.32,9.32,0,0,0-1.89-.19h-3.17V19.86h-1.55V.82h4.74a13.34,13.34,0,0,1,2.4.23,7.58,7.58,0,0,1,2.26.8,4.91,4.91,0,0,1,1.67,1.57A4.56,4.56,0,0,1,146.57,6a5,5,0,0,1-.31,1.84,4.94,4.94,0,0,1-.8,1.41,5.2,5.2,0,0,1-1.09,1.06,6.73,6.73,0,0,1-1.24.7,11.87,11.87,0,0,1,1.71,1.86,6.44,6.44,0,0,1,1.14,2.5Z"/><path class="cls-1" d="M167.19,2.2h-5.82V19.89h-1.72V2.2h-5.77V.87h13.32Z"/><path class="cls-1" d="M189.29.34s-4.79,14.66-5,15.42L179.17.34h-4.42V20.17h3.15V5.79l4.81,14.38h3l4.82-14.31V20.17h3.15V.34Z"/><path class="cls-1" d="M214,.34V12.61a8.62,8.62,0,0,1-.2,1.83,4.69,4.69,0,0,1-.66,1.59,3.5,3.5,0,0,1-1.22,1.1,4,4,0,0,1-1.9.41,3.89,3.89,0,0,1-1.93-.42A3.26,3.26,0,0,1,207,16a4.5,4.5,0,0,1-.6-1.57,10.81,10.81,0,0,1-.16-1.82V.34h-3.42V12.67a12.74,12.74,0,0,0,.29,2.62,6.82,6.82,0,0,0,1.1,2.55,6,6,0,0,0,2.22,1.91,8,8,0,0,0,3.68.75,7.68,7.68,0,0,0,3.63-.77A6.47,6.47,0,0,0,216,17.79a7.16,7.16,0,0,0,1.17-2.54,11.06,11.06,0,0,0,.33-2.58V.34Z"/><path class="cls-1" d="M237.79,12.23a5.64,5.64,0,0,0-1.19-1.54,9.12,9.12,0,0,0-1.53-1l-1.42-.81-2.06-1-1.09-.56-.9-.58A2.6,2.6,0,0,1,229,6.1a1.71,1.71,0,0,1-.21-.88,1.78,1.78,0,0,1,.81-1.62A3.8,3.8,0,0,1,231.76,3a13.24,13.24,0,0,1,3,.45,11.69,11.69,0,0,1,2.05.74l.29.15V1L235.91.69,234.7.38,233.34.14l-1.4-.09a8.27,8.27,0,0,0-4.81,1.31,4.66,4.66,0,0,0-1.91,4.08,3.83,3.83,0,0,0,.65,2.2,6.48,6.48,0,0,0,1.57,1.61,14.32,14.32,0,0,0,2.05,1.27l2,1,1.16.58,1.05.66a2.88,2.88,0,0,1,.75.88,2.54,2.54,0,0,1,.29,1.25,2.42,2.42,0,0,1-.31,1.26,2.38,2.38,0,0,1-.82.82,3.51,3.51,0,0,1-1.22.46l-1.44.13-1.84-.13-1.5-.32-1.14-.38-1.08-.45v3.33l1.32.36,1.27.28,1.33.19,1.37.09a9.57,9.57,0,0,0,5.56-1.45,5.14,5.14,0,0,0,2.08-4.49h0A5.44,5.44,0,0,0,237.79,12.23Z"/><path class="cls-1" d="M249.54,17.21V11.32h7.83v-3h-7.83v-5h8.15v-3H246.17V20.2H258v-3Z"/><path class="cls-1" d="M277,.34V12.61a8.62,8.62,0,0,1-.2,1.83,4.71,4.71,0,0,1-.67,1.59,3.38,3.38,0,0,1-1.21,1.1,4,4,0,0,1-1.9.41,3.93,3.93,0,0,1-1.94-.42A3.23,3.23,0,0,1,269.93,16a4.14,4.14,0,0,1-.6-1.57,9.86,9.86,0,0,1-.16-1.82V.34h-3.42V12.67a12.74,12.74,0,0,0,.29,2.62,6.82,6.82,0,0,0,1.1,2.55,5.9,5.9,0,0,0,2.22,1.91,7.92,7.92,0,0,0,3.68.75,7.71,7.71,0,0,0,3.63-.77,6.56,6.56,0,0,0,2.27-1.94,7.34,7.34,0,0,0,1.17-2.54,11.06,11.06,0,0,0,.33-2.58V.34Z"/><path class="cls-1" d="M304,.34l-5,15.42L293.88.34h-4.42V20.17h3.15V5.79l4.81,14.38h3l4.81-14.31V20.17h3.15V.34Z"/></g></g></svg>