<svg xmlns="http://www.w3.org/2000/svg" viewBox="0 0 513.95 43.09"><defs><style>.cls-1{fill:#231f20;}</style></defs><g id="Layer_2" data-name="Layer 2"><g id="Layer_1-2" data-name="Layer 1"><polygon class="cls-1" points="130.55 2.54 128.01 0 125.47 2.54 117.3 10.71 119.84 13.25 128.01 5.08 136.11 13.18 138.65 10.64 130.55 2.54"/><path class="cls-1" d="M100.13,16.49V43.08h3.59V16.49h-3.59M89.29,17.54H79a4.8,4.8,0,0,0-4.79,4.8V32.7A4.8,4.8,0,0,0,79,37.49H89.29a4.8,4.8,0,0,0,4.8-4.79V22.34a4.8,4.8,0,0,0-4.8-4.8M90.5,32.7a1.21,1.21,0,0,1-1.21,1.21H79a1.21,1.21,0,0,1-1.2-1.21V22.34A1.21,1.21,0,0,1,79,21.13H89.29a1.21,1.21,0,0,1,1.21,1.21Z"/><path class="cls-1" d="M26.59,16.49v6.88H22.54V16.49H19V43.08h3.59V27h4.05V43.08h3.6V16.49h-3.6M0,22.3v6.06a4.8,4.8,0,0,0,4.79,4.79H19.51V29.57H4.79a1.21,1.21,0,0,1-1.2-1.21V22.3a1.2,1.2,0,0,1,1.2-1.2h10.6V17.5H4.79A4.8,4.8,0,0,0,0,22.3Z"/><path class="cls-1" d="M68.86,28.16H64.35V22.25c0-4.13-1.18-5.7-5.7-5.7H38.54v3.59H58.65c1.73,0,2.11.95,2.11,2.11v5.91H34.63v3.59H49.1l0,11.32h3.58l0-11.32H68.86Z"/><path class="cls-1" d="M146.54,20.37V16.79H109.31v3.58h16.62v3.92h-9.27v3.59h18.27c1.25,0,1.38,1,1.38,2s-.13,2-1.38,2H119.77c-3.37,0-3.5,2.44-3.5,5.41v.09c0,2.06-.18,5.76,3.5,5.76H140V39.5H121.65c-1.78,0-1.78-1.28-1.78-2.21h0c0-1.09,0-1.87,1.78-1.87H136.3c3.24,0,3.43-1.65,3.57-4.43h0V28.72h0c-.14-2.78-.39-4.43-3.63-4.43h-6.72V20.37Z"/><path class="cls-1" d="M168.18,22.4v3h3.59V21.31c0-3.14-1.46-4.6-4.6-4.6H152V20.3h14.07c1.84,0,2.11.94,2.11,2.1M179.7,34.9V25.5h4.47V21.91H179.7v-6h-3.59v12H161.62V22.37H158v5.52H149.4v3.59h5v6.77c0,3.14,1.54,4.36,4.67,4.36H180V39H160.13c-1.16,0-2.1-.24-2.1-2.1V31.48h18.08V34.9Z"/><path class="cls-1" d="M219.24,22.86a8.13,8.13,0,0,0-3.78-3.14,11.05,11.05,0,0,0-1.94-.56,10.69,10.69,0,0,0-2.25-.24h-5.72V38.79h5l1.91-.07a9.25,9.25,0,0,0,1.82-.29,8.74,8.74,0,0,0,2.43-1.11,8.37,8.37,0,0,0,2-1.91,9.37,9.37,0,0,0,1.41-2.81,12.43,12.43,0,0,0,.52-3.78A10.73,10.73,0,0,0,219.24,22.86ZM210.6,35.8h-1.68V21.91h1.43l1.52.08,1.41.16a5,5,0,0,1,1.5.59A4.21,4.21,0,0,1,216.07,24a6.4,6.4,0,0,1,.94,2,11.32,11.32,0,0,1,.38,2.89,9.55,9.55,0,0,1-.37,2.84,6.45,6.45,0,0,1-1,2,4.82,4.82,0,0,1-1.3,1.26,4.72,4.72,0,0,1-1.38.64l-1.33.22Z"/><path class="cls-1" d="M236.75,18.87h-3.44l-7.1,19.87h3.42L231.74,33h6.5c.08.25,2,5.72,2,5.72h3.68Zm-4,11.16c.16-.45,2.12-6.3,2.35-7,.22.7,2,6.56,2.16,7Z"/><path class="cls-1" d="M254.11,35.8V29.9h7.83v-3h-7.83v-5h8.15v-3H250.74V38.79h11.79v-3Z"/><path class="cls-1" d="M285.35,25.26v-.2a6.77,6.77,0,0,0-.56-2.83,5.83,5.83,0,0,0-1.52-2,6.37,6.37,0,0,0-2.2-1.21,8.51,8.51,0,0,0-2.63-.4,9.19,9.19,0,0,0-4,.83,8.45,8.45,0,0,0-2.85,2.19,9,9,0,0,0-1.72,3.17,12.6,12.6,0,0,0-.55,3.7,13.84,13.84,0,0,0,.54,3.83,10.28,10.28,0,0,0,1.67,3.4,8.52,8.52,0,0,0,2.88,2.43,8.8,8.8,0,0,0,4.18.93l2.18-.12,1.66-.32,1.23-.42.89-.37.6-.1.16,0V27.87h-8v3.05h4.66v4.86l-1.28.32-1.56.12a6,6,0,0,1-3.3-.87,6.44,6.44,0,0,1-1.93-2,7.51,7.51,0,0,1-.92-2.49,12.6,12.6,0,0,1-.24-2.24,9.61,9.61,0,0,1,.43-3,6.45,6.45,0,0,1,1.23-2.24,5.08,5.08,0,0,1,1.8-1.4,5.31,5.31,0,0,1,2.25-.48,5.87,5.87,0,0,1,1.31.21,3.24,3.24,0,0,1,1.14.58,2.82,2.82,0,0,1,.75,1.09,4.62,4.62,0,0,1,.29,1.74v.2Z"/><path class="cls-1" d="M305.15,18.92V31.2A8.08,8.08,0,0,1,305,33a4.45,4.45,0,0,1-.66,1.58,3.24,3.24,0,0,1-1.22,1.1,3.83,3.83,0,0,1-1.89.41,3.9,3.9,0,0,1-1.94-.42,3.31,3.31,0,0,1-1.18-1.11,4.37,4.37,0,0,1-.59-1.57,9.94,9.94,0,0,1-.16-1.82V18.92h-3.43V31.25a12.83,12.83,0,0,0,.29,2.63,7.16,7.16,0,0,0,1.11,2.55,5.89,5.89,0,0,0,2.22,1.9,7.92,7.92,0,0,0,3.68.76,7.64,7.64,0,0,0,3.62-.77,6.51,6.51,0,0,0,2.28-1.94,7.45,7.45,0,0,0,1.16-2.55,11,11,0,0,0,.34-2.58V18.92Z"/><path class="cls-1" d="M331.89,38.43h-1.84L328,32.36H320l-2.12,6.07h-1.62L323,19.36h2.19ZM327.5,31l-3.33-9.88h-.35L320.49,31Z"/><path class="cls-1" d="M352.48,38.45h-1.84L350,34.74a8.36,8.36,0,0,0-.61-1.81,9.27,9.27,0,0,0-.85-1.44,6.6,6.6,0,0,0-1-1,3.72,3.72,0,0,0-.91-.55,4,4,0,0,1-.74.05,5.64,5.64,0,0,1-.72,0h-1.76v-1.3h1.73a9.49,9.49,0,0,0,1.9-.19,5,5,0,0,0,1.7-.65A3.49,3.49,0,0,0,350,26.57a4,4,0,0,0,.47-2,3.31,3.31,0,0,0-.47-1.81,3.54,3.54,0,0,0-1.24-1.16A5.65,5.65,0,0,0,347,21a10.29,10.29,0,0,0-1.9-.19h-3.17V38.45H340.4v-19h4.74a13.43,13.43,0,0,1,2.4.23,7.41,7.41,0,0,1,2.26.8A4.79,4.79,0,0,1,351.46,22a4.47,4.47,0,0,1,.67,2.54,5.31,5.31,0,0,1-.31,1.85,5.13,5.13,0,0,1-.8,1.4,5.24,5.24,0,0,1-1.1,1.06,7.07,7.07,0,0,1-1.23.71,12.74,12.74,0,0,1,1.7,1.85,6.41,6.41,0,0,1,1.14,2.51Z"/><path class="cls-1" d="M372.75,20.78h-5.82V38.47H365.2V20.78h-5.77V19.46h13.33Z"/><path class="cls-1" d="M394.85,18.92s-4.79,14.67-5,15.42l-5.09-15.42H380.3V38.76h3.15V24.37c.53,1.57,4.82,14.39,4.82,14.39h3s4.25-12.62,4.81-14.31V38.76h3.15V18.92Z"/><path class="cls-1" d="M419.6,18.92V31.2a8.69,8.69,0,0,1-.2,1.83,4.66,4.66,0,0,1-.67,1.58,3.29,3.29,0,0,1-1.21,1.1,4.65,4.65,0,0,1-3.84,0,3.31,3.31,0,0,1-1.18-1.11,4.37,4.37,0,0,1-.59-1.57,9.94,9.94,0,0,1-.16-1.82V18.92h-3.42V31.25a12.17,12.17,0,0,0,.29,2.63,7,7,0,0,0,1.1,2.55,6,6,0,0,0,2.22,1.9,7.92,7.92,0,0,0,3.68.76,7.64,7.64,0,0,0,3.62-.77,6.51,6.51,0,0,0,2.28-1.94,7.67,7.67,0,0,0,1.17-2.55,11.48,11.48,0,0,0,.33-2.58V18.92Z"/><path class="cls-1" d="M443.35,30.82a5.39,5.39,0,0,0-1.2-1.55,9.35,9.35,0,0,0-1.53-1l-1.42-.81-2.05-.95-1.09-.57-.9-.57a2.58,2.58,0,0,1-.61-.68,1.74,1.74,0,0,1-.22-.88,1.81,1.81,0,0,1,.81-1.62,3.8,3.8,0,0,1,2.17-.57,14.57,14.57,0,0,1,3,.45,11.11,11.11,0,0,1,2.05.75l.28.14V19.57l-1.19-.29-1.2-.32-1.37-.23-1.39-.1a8.25,8.25,0,0,0-4.81,1.31A4.65,4.65,0,0,0,430.78,24a3.77,3.77,0,0,0,.64,2.19A6.89,6.89,0,0,0,433,27.84,14.26,14.26,0,0,0,435,29.1l2,1,1.16.58,1,.67a2.93,2.93,0,0,1,.76.88,2.52,2.52,0,0,1,.28,1.24,2.37,2.37,0,0,1-.31,1.27,2.33,2.33,0,0,1-.81.81A3.5,3.5,0,0,1,438,36l-1.43.13L434.69,36l-1.5-.32-1.14-.39L431,34.84v3.34l1.31.35,1.28.29,1.33.19,1.36.08a9.52,9.52,0,0,0,5.56-1.44,5.15,5.15,0,0,0,2.09-4.49h0A5.59,5.59,0,0,0,443.35,30.82Z"/><path class="cls-1" d="M455.09,35.8V29.9h7.83v-3h-7.83v-5h8.15v-3H451.72V38.79h11.8v-3Z"/><path class="cls-1" d="M482.57,18.92V31.2a8.08,8.08,0,0,1-.2,1.83,4.64,4.64,0,0,1-.66,1.58,3.4,3.4,0,0,1-1.22,1.1,4.63,4.63,0,0,1-3.83,0,3.31,3.31,0,0,1-1.18-1.11,4.58,4.58,0,0,1-.6-1.57,10.9,10.9,0,0,1-.16-1.82V18.92H471.3V31.25a12.83,12.83,0,0,0,.29,2.63,7.14,7.14,0,0,0,1.1,2.55,6,6,0,0,0,2.23,1.9,7.9,7.9,0,0,0,3.67.76,7.68,7.68,0,0,0,3.63-.77,6.47,6.47,0,0,0,2.27-1.94,7.29,7.29,0,0,0,1.17-2.55,10.93,10.93,0,0,0,.33-2.58V18.92Z"/><path class="cls-1" d="M509.56,18.92s-4.79,14.67-5,15.42l-5.09-15.42H495V38.76h3.15V24.37c.53,1.57,4.82,14.39,4.82,14.39h3l4.82-14.31V38.76H514V18.92Z"/></g></g></svg>