<svg xmlns="http://www.w3.org/2000/svg" viewBox="0 0 184.17 43.09"><defs><style>.cls-1{fill:#231f20;}</style></defs><g id="Layer_2" data-name="Layer 2"><g id="_레이어_" data-name="&lt;레이어&gt;"><polygon class="cls-1" points="130.55 2.54 128.01 0 125.47 2.54 117.3 10.71 119.84 13.25 128.01 5.08 136.11 13.18 138.65 10.64 130.55 2.54"/><path class="cls-1" d="M100.13,16.49V43.08h3.59V16.49h-3.59M89.29,17.54H79a4.8,4.8,0,0,0-4.79,4.8V32.7A4.8,4.8,0,0,0,79,37.49H89.29a4.8,4.8,0,0,0,4.8-4.79V22.34a4.8,4.8,0,0,0-4.8-4.8M90.5,32.7a1.21,1.21,0,0,1-1.21,1.21H79a1.21,1.21,0,0,1-1.2-1.21V22.34A1.21,1.21,0,0,1,79,21.13H89.29a1.21,1.21,0,0,1,1.21,1.21Z"/><path class="cls-1" d="M26.59,16.49v6.88H22.54V16.49H19V43.08h3.59V27h4.05V43.08h3.6V16.49h-3.6M0,22.3v6.06a4.8,4.8,0,0,0,4.79,4.79H19.51V29.57H4.79a1.21,1.21,0,0,1-1.2-1.21V22.3a1.2,1.2,0,0,1,1.2-1.2h10.6V17.5H4.79A4.8,4.8,0,0,0,0,22.3Z"/><path class="cls-1" d="M68.86,28.16H64.35V22.25c0-4.13-1.18-5.7-5.7-5.7H38.54v3.59H58.65c1.73,0,2.11.95,2.11,2.11v5.91H34.63v3.59H49.1l0,11.32h3.58l0-11.32H68.86Z"/><path class="cls-1" d="M146.54,20.37V16.79H109.31v3.58h16.62v3.92h-9.27v3.59h18.27c1.25,0,1.38,1,1.38,2s-.13,2-1.38,2H119.77c-3.37,0-3.5,2.44-3.5,5.41v.09c0,2.06-.18,5.76,3.5,5.76H140V39.5H121.65c-1.78,0-1.78-1.28-1.78-2.21h0c0-1.09,0-1.87,1.78-1.87H136.3c3.24,0,3.43-1.65,3.57-4.43h0V28.72h0c-.14-2.78-.39-4.43-3.63-4.43h-6.72V20.37Z"/><path class="cls-1" d="M168.18,22.4v3h3.59V21.31c0-3.14-1.46-4.6-4.6-4.6H152V20.3h14.07c1.84,0,2.11.94,2.11,2.1M179.7,34.9V25.5h4.47V21.91H179.7v-6h-3.59v12H161.62V22.37H158v5.52H149.4v3.59h5v6.77c0,3.14,1.54,4.36,4.67,4.36H180V39H160.13c-1.16,0-2.1-.24-2.1-2.1V31.48h18.08V34.9Z"/></g></g></svg>